<?xml version="1.0" encoding="utf-8"?>
<!-- Generator: Adobe Illustrator 26.0.3, SVG Export Plug-In . SVG Version: 6.00 Build 0)  -->
<svg version="1.1" id="Слой_1" xmlns="http://www.w3.org/2000/svg" xmlns:xlink="http://www.w3.org/1999/xlink" x="0px" y="0px"
	 viewBox="0 0 279.8 335.5" style="enable-background:new 0 0 279.8 335.5;" xml:space="preserve">
<g fill="#ffffff">
	<path  d="M279.4,207.2l-8.9-38.4c0-0.3,0-0.6-0.1-0.9v-52.4C270.3,51.8,218.5,0,154.8,0H125C61.3,0,9.5,51.8,9.5,115.6V168
		c0,0.3,0,0.6-0.1,0.9l-8.9,38.4c-1.6,6.8,1.1,13.7,6.8,17.6l21.5,14.9c2.5,1.7,3.9,4.5,3.9,7.4v32.4c0,7.2,4.8,13.4,12,15.3
		l30.1,6.5l11.7,24.1c2.9,6.1,9.2,10,15.9,10h5.3c4.9,0,9.7-2.1,13-5.7l4.5-4.9c2.1-2.3,5.2-3.7,8.4-3.7h13.6c3.2,0,6.3,1.4,8.4,3.7
		l4.5,4.9c3.4,3.6,8.1,5.7,13,5.7h5.3c6.7,0,13-3.9,15.9-10l11.6-24l29.6-6.7c6.9-1.8,11.7-8.1,11.7-15.3v-32.4c0-3,1.4-5.7,3.9-7.4
		l21.5-14.9C278.3,220.9,280.9,214,279.4,207.2L279.4,207.2z M172,176.9c5,1.5,9.6,3.4,13.9,5.8c4.7,2.7,9.8,3,11.5,3
		c0.3,0,0.5,0,0.6,0c6.7,0,13.1-2.9,17.6-7.9c4.5-5,6.6-11.7,5.8-18.5c-1.2-10.3-9.5-18.8-19.7-20.4c-3.7-0.6-7.4-0.3-10.9,0.8
		c-6.8,2.2-14.9,4.4-23.3,4.4h-52.4c-8.4,0-16.5-2.2-23.3-4.4c-3.5-1.1-7.2-1.4-10.9-0.8c-10.2,1.6-18.5,10.1-19.7,20.4
		c-0.8,6.7,1.3,13.4,5.8,18.5c4.5,5,10.8,7.9,17.3,7.9h0c0.1,0,0.4,0,0.8,0c1.9,0,6.9-0.3,11.6-3c2.5-1.4,5.2-2.7,8-3.8
		c-4.3,11.9-17.1,41.1-45.7,60.5v-21.9c0-6.2-3.2-12-8.7-15.4c-16.8-10.6-25.6-30.2-22.6-50c3.3-21.8,20.9-38.8,42.9-41.5
		c7.3-0.9,14.5-0.2,21.4,2l14.3,2.7c22.3,4.2,44.8,4.3,67.1,0.1l14.5-2.7l0.6-0.1c6.9-2.2,14.1-2.9,21.4-2
		c21.9,2.7,39.6,19.8,42.9,41.5c3,19.8-5.8,39.4-22.6,50c-5.4,3.5-8.7,9.2-8.7,15.4v24C189,221,175.6,187.5,172,176.9L172,176.9z
		 M46.8,285.7c-2.8-0.8-4.7-3.3-4.7-6.2V259c3.5-1.4,6.8-2.8,9.9-4.5l17.5,36.1L46.8,285.7z M237.7,279.5c0,2.9-1.9,5.4-4.5,6.1
		l-22,5l16.9-34.9c2.4,1.1,4.8,2.2,7.4,3.2l2.3,0.9L237.7,279.5z"/>
	<path d="M239.6,156.5c-2.1-18-16.7-33.2-34.7-35.9c-6.5-1-13-0.5-19.1,1.4c-14.9,4.8-26,6.4-42.6,6.4h-1.1c-18.2,0-33.1-2-46.9-6.4
		c-1.6-0.5-3.2-0.9-4.8-1.2c-4.6-0.9-9.5-1-14.3-0.2c-17.9,2.7-32.5,17.9-34.7,35.9c-2.1,18.1,7.5,35.3,24,42.8
		c2.4,1.1,5.2,0,6.3-2.3c1.1-2.4,0-5.2-2.4-6.3c-12.7-5.8-20.1-19-18.5-33c1.7-13.9,12.8-25.6,26.7-27.7c5.1-0.8,10.1-0.4,14.8,1.1
		c14.7,4.7,30.5,6.9,49.8,6.9h1.1c17.4,0,29.7-1.8,45.5-6.9c4.7-1.5,9.7-1.9,14.8-1.1c13.8,2.1,25,13.8,26.7,27.7
		c1.7,14-5.8,27.2-18.5,33c-2.4,1.1-3.5,3.9-2.4,6.3c0.8,1.8,2.5,2.7,4.3,2.7c0.7,0,1.3-0.1,2-0.4
		C232.1,191.8,241.8,174.6,239.6,156.5L239.6,156.5z"/>
</g>
</svg>
