<?xml version="1.0" encoding="utf-8"?>
<!-- Generator: Adobe Illustrator 26.0.3, SVG Export Plug-In . SVG Version: 6.00 Build 0)  -->
<svg version="1.1" id="Слой_1" xmlns="http://www.w3.org/2000/svg" xmlns:xlink="http://www.w3.org/1999/xlink" x="0px" y="0px"
	 viewBox="0 0 327.6 475.7" style="enable-background:new 0 0 327.6 475.7;" xml:space="preserve">
<style type="text/css">
	.st0{clip-path:url(#SVGID_00000091699288691414526810000000315372776861581490_);}
	.st1{stroke:#FFFF00;stroke-width:2;stroke-miterlimit:10;}
	
		.st2{clip-path:url(#SVGID_00000091699288691414526810000000315372776861581490_);stroke:#000000;stroke-width:2;stroke-miterlimit:10;}
	.st3{display:none;}
	.st4{display:inline;}
	.st5{display:inline;clip-path:url(#SVGID_00000176745870665098021590000008636392650266722956_);}
	.st6{fill-rule:evenodd;clip-rule:evenodd;}
</style>
<g>
	<defs>
		<rect id="SVGID_1_" x="0.8" y="1" width="326" height="473.6" />
	</defs>
	<clipPath id="SVGID_00000088822641493187810670000008252209778325347512_">
		<use xlink:href="#SVGID_1_"  style="overflow:visible;"/>
	</clipPath>
	<g style="clip-path:url(#SVGID_00000088822641493187810670000008252209778325347512_);">
		<path fill="#FFFF00" class="st1" d="M45.8,1h236.8c12.3,0,23.1,5.1,31,13l0.7,0.7c7.9,7.9,12.3,18.8,12.3,31v414.4c0,7.9-6.5,14.4-14.4,14.4
			c-4.3,0-7.2-1.4-10.1-3.6L164.2,367.7l-139.3,104c-6.5,5.1-15.9,3.6-20.9-2.9C1.7,465.9,1,463,1,460.1V45.8C1,33.5,6.1,21.9,14,14
			C21.9,6.1,33.5,1,45.8,1L45.8,1z M89.8,105c7.9-5.8,18-10.1,28.9-10.1c13.7-0.7,28.9,4.3,45.5,15.9c15.9-11.6,31-16.6,44.8-15.9
			c10.8,0,20.9,4.3,28.9,10.1c7.9,6.5,13.7,14.4,17.3,23.8c6.5,15.9,6.5,35.4-0.7,52.7c-9.4,19.5-20.9,36.1-35.4,51.3
			c-13.7,14.4-29.6,26.7-46.2,39.7c-5.8,3.6-13,3.6-18-0.7l0,0c-16.6-12.3-32.5-24.5-46.2-39c-13.7-15.2-26-31.8-34.7-51.3
			c-7.9-17.3-7.9-36.8-1.4-52.7C76.1,119.4,81.9,111.5,89.8,105 M130.2,211.8c10.1,10.8,21.7,20.2,33.9,29.6
			c12.3-9.4,23.1-18.8,33.2-29.6c12.3-12.3,22.4-26,29.6-42.6c4.3-9.4,4.3-20.2,0.7-29.6c-1.4-4.3-4.3-8.7-7.9-10.8
			c-2.9-2.9-7.2-4.3-11.6-4.3c-9.4-0.7-20.9,4.3-34.7,16.6c-5.1,4.3-13.7,5.1-19.5,0c-13.7-12.3-25.3-17.3-33.9-16.6
			c-5.1,0-8.7,1.4-12.3,4.3c-3.6,2.2-6.5,6.5-7.9,10.8c-3.6,9.4-3.6,20.2,0.7,29.6C107.8,185.8,117.9,199.5,130.2,211.8L130.2,211.8
			z M282.5,30.6H45.8c-4.3,0-7.9,1.4-10.8,4.3s-4.3,6.5-4.3,10.8v384.8l124.2-93.1c5.1-4.3,12.3-4.3,18,0L297,430.6V45.8
			c0-4.3-1.4-7.9-3.6-10.1l-0.7-0.7C289.8,32,286.2,30.6,282.5,30.6L282.5,30.6z"/>
	</g>
	
		<path style="clip-path:url(#SVGID_00000088822641493187810670000008252209778325347512_);stroke:#000000;stroke-width:2;stroke-miterlimit:10;" d="
		M247,260.6"/>
</g>
<g class="st3">
	<defs>
		<rect id="SVGID_00000044886406855844724340000008587125019362408625_" x="0.7" y="-0.1" width="326" height="473.6"/>
	</defs>
	<clipPath id="SVGID_00000085971246674535613700000017058343313074671805_" class="st4">
		<use xlink:href="#SVGID_00000044886406855844724340000008587125019362408625_"  style="overflow:visible;"/>
	</clipPath>
	<g style="display:inline;clip-path:url(#SVGID_00000085971246674535613700000017058343313074671805_);">
		<path class="st6" d="M45.1-0.1h236.8c12.5,0,23.8,5.1,31.7,13l0.6,1.1c7.9,7.9,12.5,18.7,12.5,30v414.7c0,7.9-6.8,14.7-14.7,14.7
			c-4,0-7.4-1.1-10.2-4L163.4,366.5L24.7,470.7c-6.8,4.5-15.9,3.4-21-2.8c-1.7-2.8-2.8-6.2-2.8-9.1V44.1c0-11.9,5.1-23.2,13-31.2
			C21.8,5,33.2-0.1,45.1-0.1L45.1-0.1z M159.5,270.7c-15.9-11.3-30-22.7-42.5-36.3c-13-13-23.8-28.3-31.7-45.9
			C79,174.4,79,158,84.1,145c3.4-7.9,7.9-14.7,14.2-19.3c6.8-5.1,14.7-8.5,23.8-8.5c11.9-0.6,26.1,4,41.4,16.4
			c15.3-12.5,29.5-17,41.9-16.4c9.1,0,17,3.4,23.2,8.5c6.8,4.5,11.3,11.3,14.7,19.3c5.1,13,5.1,29.5-1.1,43.6
			c-7.9,17.6-18.7,32.9-31.7,45.9c-12.5,13.6-27.2,24.9-42.5,36.3C165.1,273,161.7,273,159.5,270.7L159.5,270.7z"/>
	</g>
</g>
</svg>
