<?xml version="1.0" encoding="utf-8"?>
<!-- Generator: Adobe Illustrator 26.0.3, SVG Export Plug-In . SVG Version: 6.00 Build 0)  -->
<svg version="1.1" id="Слой_1" xmlns="http://www.w3.org/2000/svg" xmlns:xlink="http://www.w3.org/1999/xlink" x="0px" y="0px"
	 viewBox="0 0 326 473.6" style="enable-background:new 0 0 326 473.6;" xml:space="preserve">
<style type="text/css">
	.st0{clip-path:url(#SVGID_00000131340025374427669480000002593639908754086588_);}
	.st1{fill-rule:evenodd;clip-rule:evenodd;}
</style>
<g>
	<defs>
		<rect id="SVGID_1_" width="326" height="473.6"/>
	</defs>
	<clipPath id="SVGID_00000080206028191460201610000000570184666287949483_">
		<use xlink:href="#SVGID_1_"  style="overflow:visible;"/>
	</clipPath>
	<g style="clip-path:url(#SVGID_00000080206028191460201610000000570184666287949483_);">
		<path fill="#FFFF00" class="st1" d="M44.3,0h236.8c12.5,0,23.8,5.1,31.7,13l0.6,1.1c7.9,7.9,12.5,18.7,12.5,30v414.7c0,7.9-6.8,14.7-14.7,14.7
			c-4,0-7.4-1.1-10.2-4L162.7,366.5L23.9,470.7c-6.8,4.5-15.9,3.4-21-2.8c-1.7-2.8-2.8-6.2-2.8-9.1V44.2c0-11.9,5.1-23.2,13-31.2
			C21.1,5.1,32.4,0,44.3,0L44.3,0z M158.8,270.8c-15.9-11.3-30-22.7-42.5-36.3c-13-13-23.8-28.3-31.7-45.9
			c-6.2-14.2-6.2-30.6-1.1-43.6c3.4-7.9,7.9-14.7,14.2-19.3c6.8-5.1,14.7-8.5,23.8-8.5c11.9-0.6,26.1,4,41.4,16.4
			c15.3-12.5,29.5-17,41.9-16.4c9.1,0,17,3.4,23.2,8.5c6.8,4.5,11.3,11.3,14.7,19.3c5.1,13,5.1,29.5-1.1,43.6
			c-7.9,17.6-18.7,32.9-31.7,45.9c-12.5,13.6-27.2,24.9-42.5,36.3C164.4,273,161,273,158.8,270.8L158.8,270.8z"/>
	</g>
</g>
</svg>
