<?xml version="1.0" encoding="utf-8"?>
<!-- Generator: Adobe Illustrator 26.0.3, SVG Export Plug-In . SVG Version: 6.00 Build 0)  -->
<svg version="1.1" id="Слой_1" xmlns="http://www.w3.org/2000/svg" xmlns:xlink="http://www.w3.org/1999/xlink" x="0px" y="0px"
	 viewBox="0 0 288.9 316.4" style="enable-background:new 0 0 288.9 316.4;" xml:space="preserve">
<g fill="#ae72c2">
	<path d="M157.1,44.7c0,7.2-5.9,13.1-13.1,13.1c-7.2,0-13.1-5.9-13.1-13.1c0-7.2,5.9-13.1,13.1-13.1
		C151.2,31.6,157.1,37.5,157.1,44.7z M229,83.9c0,0.6,0.1,1.2,0.1,1.8v124.1h0c-0.2,42.2-29.9,77.1-70,84c0.3,0.6,0.5,1.2,0.7,1.9
		l3.7,11.5c1.6,5-1.4,9-6.6,9h-3.6h-10h-10h-3.6c-5.2,0-8.2-4-6.6-9l3.7-11.5c0.2-0.8,0.6-1.5,0.9-2.2c-39-7.8-67.7-42.2-67.9-83.7
		h0l0-124.1c0-0.6,0.1-1.2,0.1-1.8h168.9C228.9,84,229,83.9,229,83.9L229,83.9z M158,208.4H130v39.3H158V208.4z M158,164.4H130
		l0,39.3H158L158,164.4z M211.6,127.8H80.7v9.6h130.8V127.8z M212.3,104.5H81.5v9.6h130.8V104.5z M60.3,76.8
		C64.7,33.7,100.2,0,144.6,0c44.4,0,79.8,33.7,84.1,76.8H60.3z M181.2,59.9c0,6.1,5,11.1,11.1,11.1c6.1,0,11.1-5,11.1-11.1
		c0-6.1-5-11.1-11.1-11.1C186.2,48.8,181.2,53.8,181.2,59.9z M125.5,63.3h37.1V26.2h-37.1V63.3z"/>
	<path d="M49.1,83.9c2.6,0,4.7,2.1,4.7,4.7v223c0,2.6-2.1,4.7-4.7,4.7l-46.3,0c-2.6,0-3.5-1.8-2.1-3.9l22.6-33.7
		c1.5-2.2,2.6-6.1,2.6-8.7V88.6c0-2.6,2.1-4.7,4.7-4.7L49.1,83.9z"/>
	<path d="M239.8,83.9c-2.6,0-4.7,2.1-4.7,4.7v223c0,2.6,2.1,4.7,4.7,4.7l46.3,0c2.6,0,3.6-1.8,2.1-3.9l-22.6-33.7
		c-1.5-2.2-2.6-6.1-2.6-8.7l0-181.4c0-2.6-2.1-4.7-4.7-4.7L239.8,83.9z"/>
</g>
</svg>
